<mxfile host="app.diagrams.net" agent="Mozilla/5.0 (X11; Linux x86_64) AppleWebKit/537.36 (KHTML, like Gecko) Chrome/132.0.0.0 Safari/537.36" version="26.0.16">
  <diagram name="Page-1" id="Njw87FlMFdm7iUNFClxv">
    <mxGraphModel dx="2323" dy="631" grid="1" gridSize="10" guides="1" tooltips="1" connect="1" arrows="1" fold="1" page="1" pageScale="1" pageWidth="1169" pageHeight="827" math="0" shadow="0">
      <root>
        <mxCell id="0" />
        <mxCell id="1" parent="0" />
        <mxCell id="XVqut8qek2zjpsHxjf62-9" value="" style="rounded=0;whiteSpace=wrap;html=1;strokeColor=none;" vertex="1" parent="1">
          <mxGeometry x="-1120" y="40" width="950" height="280" as="geometry" />
        </mxCell>
        <mxCell id="XVqut8qek2zjpsHxjf62-10" style="edgeStyle=orthogonalEdgeStyle;rounded=0;orthogonalLoop=1;jettySize=auto;html=1;exitX=1;exitY=0.479;exitDx=0;exitDy=0;exitPerimeter=0;entryX=0;entryY=0.5;entryDx=0;entryDy=0;" edge="1" parent="1" source="XVqut8qek2zjpsHxjf62-12" target="XVqut8qek2zjpsHxjf62-44">
          <mxGeometry relative="1" as="geometry">
            <mxPoint x="-1015" y="150" as="sourcePoint" />
            <mxPoint x="-985" y="65" as="targetPoint" />
          </mxGeometry>
        </mxCell>
        <mxCell id="XVqut8qek2zjpsHxjf62-11" value="%" style="edgeLabel;html=1;align=center;verticalAlign=middle;resizable=0;points=[];" vertex="1" connectable="0" parent="XVqut8qek2zjpsHxjf62-10">
          <mxGeometry x="-0.0934" y="-1" relative="1" as="geometry">
            <mxPoint as="offset" />
          </mxGeometry>
        </mxCell>
        <mxCell id="XVqut8qek2zjpsHxjf62-12" value="Stroke" style="rounded=1;whiteSpace=wrap;html=1;fillColor=#d5e8d4;strokeColor=#82b366;" vertex="1" parent="1">
          <mxGeometry x="-1085" y="70" width="120" height="50" as="geometry" />
        </mxCell>
        <mxCell id="XVqut8qek2zjpsHxjf62-13" style="edgeStyle=orthogonalEdgeStyle;rounded=0;orthogonalLoop=1;jettySize=auto;html=1;exitX=1;exitY=0.5;exitDx=0;exitDy=0;entryX=0;entryY=0.5;entryDx=0;entryDy=0;" edge="1" parent="1" source="XVqut8qek2zjpsHxjf62-14" target="XVqut8qek2zjpsHxjf62-19">
          <mxGeometry relative="1" as="geometry">
            <mxPoint x="-735" y="215" as="targetPoint" />
            <Array as="points">
              <mxPoint x="-835" y="180" />
            </Array>
          </mxGeometry>
        </mxCell>
        <mxCell id="XVqut8qek2zjpsHxjf62-14" value="Transient ischemic attacks" style="rounded=1;whiteSpace=wrap;html=1;fillColor=light-dark(#d5e8d4, #1f2f1e);strokeColor=#82b366;" vertex="1" parent="1">
          <mxGeometry x="-915" y="155" width="120" height="50" as="geometry" />
        </mxCell>
        <mxCell id="XVqut8qek2zjpsHxjf62-15" style="edgeStyle=orthogonalEdgeStyle;rounded=0;orthogonalLoop=1;jettySize=auto;html=1;exitX=1;exitY=0.5;exitDx=0;exitDy=0;entryX=0;entryY=0.5;entryDx=0;entryDy=0;" edge="1" parent="1" source="XVqut8qek2zjpsHxjf62-16" target="XVqut8qek2zjpsHxjf62-19">
          <mxGeometry relative="1" as="geometry">
            <mxPoint x="-735" y="215" as="targetPoint" />
            <Array as="points">
              <mxPoint x="-775" y="235" />
              <mxPoint x="-775" y="180" />
            </Array>
          </mxGeometry>
        </mxCell>
        <mxCell id="XVqut8qek2zjpsHxjf62-16" value="Complex neurological" style="rounded=1;whiteSpace=wrap;html=1;fillColor=#d5e8d4;strokeColor=#82b366;" vertex="1" parent="1">
          <mxGeometry x="-915" y="210" width="120" height="50" as="geometry" />
        </mxCell>
        <mxCell id="XVqut8qek2zjpsHxjf62-17" style="edgeStyle=orthogonalEdgeStyle;rounded=0;orthogonalLoop=1;jettySize=auto;html=1;exitX=1;exitY=0.5;exitDx=0;exitDy=0;entryX=0;entryY=0.5;entryDx=0;entryDy=0;" edge="1" parent="1" source="XVqut8qek2zjpsHxjf62-18" target="XVqut8qek2zjpsHxjf62-19">
          <mxGeometry relative="1" as="geometry">
            <mxPoint x="-735" y="215" as="targetPoint" />
            <Array as="points">
              <mxPoint x="-775" y="290" />
              <mxPoint x="-775" y="180" />
            </Array>
          </mxGeometry>
        </mxCell>
        <mxCell id="XVqut8qek2zjpsHxjf62-18" value="Other medical" style="rounded=1;whiteSpace=wrap;html=1;fillColor=#d5e8d4;strokeColor=#82b366;" vertex="1" parent="1">
          <mxGeometry x="-915" y="265" width="120" height="50" as="geometry" />
        </mxCell>
        <mxCell id="XVqut8qek2zjpsHxjf62-19" value="Acute stroke unit treatment" style="rounded=0;whiteSpace=wrap;html=1;fillColor=#dae8fc;strokeColor=#6c8ebf;" vertex="1" parent="1">
          <mxGeometry x="-745" y="150" width="120" height="60" as="geometry" />
        </mxCell>
        <mxCell id="XVqut8qek2zjpsHxjf62-20" style="edgeStyle=orthogonalEdgeStyle;rounded=0;orthogonalLoop=1;jettySize=auto;html=1;exitX=1;exitY=0.5;exitDx=0;exitDy=0;entryX=0;entryY=0.5;entryDx=0;entryDy=0;" edge="1" parent="1" source="XVqut8qek2zjpsHxjf62-19" target="XVqut8qek2zjpsHxjf62-26">
          <mxGeometry relative="1" as="geometry">
            <mxPoint x="-595" y="310" as="targetPoint" />
          </mxGeometry>
        </mxCell>
        <mxCell id="XVqut8qek2zjpsHxjf62-22" style="edgeStyle=orthogonalEdgeStyle;rounded=0;orthogonalLoop=1;jettySize=auto;html=1;exitX=1;exitY=0.5;exitDx=0;exitDy=0;entryX=0;entryY=0.5;entryDx=0;entryDy=0;" edge="1" parent="1" source="XVqut8qek2zjpsHxjf62-26" target="XVqut8qek2zjpsHxjf62-28">
          <mxGeometry relative="1" as="geometry">
            <mxPoint x="-475" y="405.13043478260875" as="targetPoint" />
          </mxGeometry>
        </mxCell>
        <mxCell id="XVqut8qek2zjpsHxjf62-23" value="Yes" style="edgeLabel;html=1;align=center;verticalAlign=middle;resizable=0;points=[];" vertex="1" connectable="0" parent="XVqut8qek2zjpsHxjf62-22">
          <mxGeometry x="-0.2324" y="1" relative="1" as="geometry">
            <mxPoint y="-10" as="offset" />
          </mxGeometry>
        </mxCell>
        <mxCell id="XVqut8qek2zjpsHxjf62-24" style="edgeStyle=orthogonalEdgeStyle;rounded=0;orthogonalLoop=1;jettySize=auto;html=1;exitX=0.5;exitY=1;exitDx=0;exitDy=0;entryX=0.5;entryY=0;entryDx=0;entryDy=0;" edge="1" parent="1" source="XVqut8qek2zjpsHxjf62-26">
          <mxGeometry relative="1" as="geometry">
            <mxPoint x="-545" y="264" as="targetPoint" />
          </mxGeometry>
        </mxCell>
        <mxCell id="XVqut8qek2zjpsHxjf62-25" value="No" style="edgeLabel;html=1;align=center;verticalAlign=middle;resizable=0;points=[];" vertex="1" connectable="0" parent="XVqut8qek2zjpsHxjf62-24">
          <mxGeometry x="-0.1208" y="1" relative="1" as="geometry">
            <mxPoint x="9" as="offset" />
          </mxGeometry>
        </mxCell>
        <mxCell id="XVqut8qek2zjpsHxjf62-26" value="&lt;div&gt;Rehab&lt;br&gt;&lt;/div&gt;&lt;div&gt;Transfer?&lt;/div&gt;" style="rhombus;whiteSpace=wrap;html=1;fillColor=light-dark(#e1d5e7, #392f3f);strokeColor=#9673a6;" vertex="1" parent="1">
          <mxGeometry x="-585" y="140" width="80" height="80" as="geometry" />
        </mxCell>
        <mxCell id="XVqut8qek2zjpsHxjf62-27" style="edgeStyle=orthogonalEdgeStyle;rounded=0;orthogonalLoop=1;jettySize=auto;html=1;exitX=0.5;exitY=1;exitDx=0;exitDy=0;" edge="1" parent="1" source="XVqut8qek2zjpsHxjf62-28">
          <mxGeometry relative="1" as="geometry">
            <mxPoint x="-485" y="290" as="targetPoint" />
            <Array as="points">
              <mxPoint x="-405" y="290" />
            </Array>
          </mxGeometry>
        </mxCell>
        <mxCell id="XVqut8qek2zjpsHxjf62-28" value="Rehabilitation" style="rounded=0;whiteSpace=wrap;html=1;fillColor=#dae8fc;strokeColor=#6c8ebf;" vertex="1" parent="1">
          <mxGeometry x="-465" y="150" width="120" height="60" as="geometry" />
        </mxCell>
        <mxCell id="XVqut8qek2zjpsHxjf62-29" style="edgeStyle=orthogonalEdgeStyle;rounded=0;orthogonalLoop=1;jettySize=auto;html=1;exitX=0;exitY=0.5;exitDx=0;exitDy=0;" edge="1" parent="1" source="XVqut8qek2zjpsHxjf62-30">
          <mxGeometry relative="1" as="geometry">
            <mxPoint x="-345" y="180" as="targetPoint" />
            <Array as="points">
              <mxPoint x="-295" y="125" />
              <mxPoint x="-315" y="125" />
              <mxPoint x="-315" y="180" />
            </Array>
          </mxGeometry>
        </mxCell>
        <mxCell id="XVqut8qek2zjpsHxjf62-30" value="Stroke" style="rounded=1;whiteSpace=wrap;html=1;fillColor=#d5e8d4;strokeColor=#82b366;" vertex="1" parent="1">
          <mxGeometry x="-295" y="100" width="120" height="50" as="geometry" />
        </mxCell>
        <mxCell id="XVqut8qek2zjpsHxjf62-31" style="edgeStyle=orthogonalEdgeStyle;rounded=0;orthogonalLoop=1;jettySize=auto;html=1;" edge="1" parent="1" source="XVqut8qek2zjpsHxjf62-32">
          <mxGeometry relative="1" as="geometry">
            <mxPoint x="-345" y="180" as="targetPoint" />
          </mxGeometry>
        </mxCell>
        <mxCell id="XVqut8qek2zjpsHxjf62-32" value="Complex neurological" style="rounded=1;whiteSpace=wrap;html=1;fillColor=#d5e8d4;strokeColor=#82b366;" vertex="1" parent="1">
          <mxGeometry x="-295" y="155" width="120" height="50" as="geometry" />
        </mxCell>
        <mxCell id="XVqut8qek2zjpsHxjf62-33" value="Other" style="rounded=1;whiteSpace=wrap;html=1;fillColor=#d5e8d4;strokeColor=#82b366;" vertex="1" parent="1">
          <mxGeometry x="-295" y="210" width="120" height="50" as="geometry" />
        </mxCell>
        <mxCell id="XVqut8qek2zjpsHxjf62-34" value="" style="edgeStyle=orthogonalEdgeStyle;rounded=0;orthogonalLoop=1;jettySize=auto;html=1;entryX=0;entryY=0.5;entryDx=0;entryDy=0;exitX=1;exitY=0.5;exitDx=0;exitDy=0;" edge="1" parent="1" source="XVqut8qek2zjpsHxjf62-44" target="XVqut8qek2zjpsHxjf62-19">
          <mxGeometry relative="1" as="geometry">
            <mxPoint x="-754.9999999999999" y="64.99999999999994" as="targetPoint" />
            <Array as="points">
              <mxPoint x="-775" y="70" />
              <mxPoint x="-775" y="180" />
            </Array>
            <mxPoint x="-835" y="65" as="sourcePoint" />
          </mxGeometry>
        </mxCell>
        <mxCell id="XVqut8qek2zjpsHxjf62-35" style="edgeStyle=orthogonalEdgeStyle;rounded=0;orthogonalLoop=1;jettySize=auto;html=1;exitX=1;exitY=0.5;exitDx=0;exitDy=0;entryX=0;entryY=0.5;entryDx=0;entryDy=0;" edge="1" parent="1" target="XVqut8qek2zjpsHxjf62-19">
          <mxGeometry relative="1" as="geometry">
            <Array as="points">
              <mxPoint x="-775" y="125" />
              <mxPoint x="-775" y="180" />
            </Array>
            <mxPoint x="-835" y="125" as="sourcePoint" />
          </mxGeometry>
        </mxCell>
        <mxCell id="XVqut8qek2zjpsHxjf62-36" style="edgeStyle=orthogonalEdgeStyle;rounded=0;orthogonalLoop=1;jettySize=auto;html=1;exitX=1.006;exitY=0.48;exitDx=0;exitDy=0;entryX=0;entryY=0.5;entryDx=0;entryDy=0;exitPerimeter=0;" edge="1" parent="1" source="XVqut8qek2zjpsHxjf62-12" target="XVqut8qek2zjpsHxjf62-45">
          <mxGeometry relative="1" as="geometry">
            <mxPoint x="-957.6399999999999" y="123.19999999999993" as="targetPoint" />
          </mxGeometry>
        </mxCell>
        <mxCell id="XVqut8qek2zjpsHxjf62-37" style="edgeStyle=orthogonalEdgeStyle;rounded=0;orthogonalLoop=1;jettySize=auto;html=1;exitX=-0.002;exitY=0.482;exitDx=0;exitDy=0;entryX=0.986;entryY=0.5;entryDx=0;entryDy=0;entryPerimeter=0;exitPerimeter=0;" edge="1" parent="1" source="XVqut8qek2zjpsHxjf62-33">
          <mxGeometry relative="1" as="geometry">
            <mxPoint x="-293.32" y="235" as="sourcePoint" />
            <mxPoint x="-345.00000000000006" y="180" as="targetPoint" />
            <Array as="points">
              <mxPoint x="-315" y="234" />
              <mxPoint x="-315" y="180" />
            </Array>
          </mxGeometry>
        </mxCell>
        <mxCell id="XVqut8qek2zjpsHxjf62-38" value="Transfers from other hospitals" style="text;html=1;align=center;verticalAlign=middle;whiteSpace=wrap;rounded=0;" vertex="1" parent="1">
          <mxGeometry x="-285" y="67" width="100" height="30" as="geometry" />
        </mxCell>
        <mxCell id="XVqut8qek2zjpsHxjf62-39" value="Direct admissions" style="text;html=1;align=center;verticalAlign=middle;whiteSpace=wrap;rounded=0;" vertex="1" parent="1">
          <mxGeometry x="-1075" y="45" width="100" height="30" as="geometry" />
        </mxCell>
        <mxCell id="XVqut8qek2zjpsHxjf62-44" value="Stroke eligible for early supported discharge" style="rounded=1;whiteSpace=wrap;html=1;fillColor=light-dark(#d5e8d4, #1f2f1e);strokeColor=#82b366;" vertex="1" parent="1">
          <mxGeometry x="-915" y="45" width="120" height="50" as="geometry" />
        </mxCell>
        <mxCell id="XVqut8qek2zjpsHxjf62-45" value="Higher severity strokes" style="rounded=1;whiteSpace=wrap;html=1;fillColor=light-dark(#d5e8d4, #1f2f1e);strokeColor=#82b366;" vertex="1" parent="1">
          <mxGeometry x="-915" y="100" width="120" height="50" as="geometry" />
        </mxCell>
        <mxCell id="XVqut8qek2zjpsHxjf62-49" value="" style="rounded=1;whiteSpace=wrap;html=1;fillColor=light-dark(#F6F6F6,var(--ge-dark-color, #121212));strokeColor=none;" vertex="1" parent="1">
          <mxGeometry x="-1114" y="196" width="172" height="119" as="geometry" />
        </mxCell>
        <mxCell id="XVqut8qek2zjpsHxjf62-40" value="Arrival source" style="rounded=1;whiteSpace=wrap;html=1;fillColor=#d5e8d4;strokeColor=#82b366;" vertex="1" parent="1">
          <mxGeometry x="-1107" y="225" width="70" height="35" as="geometry" />
        </mxCell>
        <mxCell id="XVqut8qek2zjpsHxjf62-46" value="Key:" style="text;html=1;align=center;verticalAlign=middle;whiteSpace=wrap;rounded=0;" vertex="1" parent="1">
          <mxGeometry x="-1062" y="198" width="60" height="20" as="geometry" />
        </mxCell>
        <mxCell id="XVqut8qek2zjpsHxjf62-8" value="&lt;div&gt;Routing decision&lt;/div&gt;" style="rhombus;whiteSpace=wrap;html=1;fillColor=light-dark(#e1d5e7, #392f3f);strokeColor=#9673a6;" vertex="1" parent="1">
          <mxGeometry x="-1112" y="265" width="80" height="45" as="geometry" />
        </mxCell>
        <mxCell id="XVqut8qek2zjpsHxjf62-47" value="Activity" style="rounded=0;whiteSpace=wrap;html=1;fillColor=#dae8fc;strokeColor=#6c8ebf;" vertex="1" parent="1">
          <mxGeometry x="-1027" y="225" width="70" height="35" as="geometry" />
        </mxCell>
        <mxCell id="XVqut8qek2zjpsHxjf62-50" value="Patient departure" style="shape=parallelogram;perimeter=parallelogramPerimeter;whiteSpace=wrap;html=1;fixedSize=1;fillColor=light-dark(#FFE6CC,var(--ge-dark-color, #121212));strokeColor=light-dark(#D79B00,#FFFFFF);" vertex="1" parent="1">
          <mxGeometry x="-603" y="264" width="127" height="45" as="geometry" />
        </mxCell>
        <mxCell id="XVqut8qek2zjpsHxjf62-51" value="Departure&lt;div&gt;point&lt;/div&gt;" style="shape=parallelogram;perimeter=parallelogramPerimeter;whiteSpace=wrap;html=1;fixedSize=1;fillColor=light-dark(#FFE6CC,var(--ge-dark-color, #121212));strokeColor=light-dark(#D79B00,#FFFFFF);" vertex="1" parent="1">
          <mxGeometry x="-1037" y="273" width="92" height="30" as="geometry" />
        </mxCell>
      </root>
    </mxGraphModel>
  </diagram>
</mxfile>
